<svg id="Layer_1" xmlns="http://www.w3.org/2000/svg" width="250" height="250" viewBox="0 0 250 250"><g fill="none" stroke="#000" stroke-width="8" stroke-linecap="round" stroke-linejoin="round" stroke-miterlimit="10"><path d="M125 154.15l-25.245-14.575v-29.15L125 95.85l25.245 14.575v29.15zM125 110V70M107.473 80L125 69.88 142.527 80M125 140v40M107.473 170L125 180.12 142.527 170M112.01 117.62l-34.642-20M77.266 117.799l-.001-20.238 17.528-10.12M137.99 132.62l34.642 20M155.207 162.799l17.528-10.119-.001-20.239M112.01 132.5l-34.642 20M94.792 162.679l-17.527-10.118.001-20.241M137.99 117.5l34.642-20M172.734 117.68l.001-20.241-17.527-10.118"/></g></svg>