<svg id="Layer_1" xmlns="http://www.w3.org/2000/svg" width="250" height="250" viewBox="0 0 250 250"><path d="M125.561 89.097c6.417 0 11.555 1.809 15.416 5.429 3.858 3.618 5.789 8.243 5.789 13.873 0 3.411-.701 6.179-2.1 8.301-1.402 2.124-4.27 5.245-8.604 9.363-3.153 2.99-5.208 5.525-6.158 7.599-.952 2.076-1.43 5.142-1.43 9.194h-8.588c0-4.601.544-8.307 1.639-11.123 1.093-2.814 3.528-6.04 7.302-9.679l3.938-3.81c1.182-1.094 2.143-2.235 2.876-3.426 1.337-2.091 2.005-4.264 2.005-6.515 0-3.153-.962-5.889-2.883-8.205-1.922-2.316-5.101-3.475-9.535-3.475-5.484 0-9.277 1.995-11.382 5.984-1.18 2.22-1.856 5.422-2.02 9.603h-8.59c0-6.95 1.987-12.538 5.96-16.771 3.974-4.226 9.428-6.342 16.365-6.342m3.734 61.769v10.037h-9.603v-10.037h9.603m-3.734-68.539c-8.845 0-16.01 2.853-21.298 8.478-5.175 5.514-7.796 12.714-7.796 21.406a6.77 6.77 0 0 0 6.769 6.77h8.59a6.77 6.77 0 0 0 6.765-6.505c.16-4.105.841-5.954 1.232-6.69.447-.848 1.262-2.392 5.404-2.392 2.561 0 3.914.531 4.327 1.029.913 1.101 1.321 2.299 1.321 3.881 0 .956-.298 1.867-.938 2.869l-.059.093c-.406.658-.981 1.335-1.713 2.012a5.06 5.06 0 0 0-.108.102l-3.938 3.811c-4.523 4.361-7.439 8.319-8.904 12.092-1.411 3.632-2.098 8.072-2.098 13.574 0 1.441.45 2.777 1.217 3.874a6.736 6.736 0 0 0-1.41 4.137v10.037a6.77 6.77 0 0 0 6.769 6.77h9.603a6.77 6.77 0 0 0 6.769-6.77v-10.037a6.745 6.745 0 0 0-1.765-4.559c.6-1.011.944-2.19.944-3.452 0-4.151.568-5.838.812-6.37.266-.581 1.249-2.271 4.664-5.512 4.821-4.58 7.869-7.931 9.596-10.544 2.138-3.246 3.219-7.292 3.219-12.031 0-7.55-2.667-13.878-7.929-18.812-5.138-4.818-11.882-7.261-20.045-7.261z"/><circle cx="125" cy="125" r="55" fill="none" stroke="#000" stroke-width="8" stroke-linecap="round" stroke-linejoin="round"/></svg>