<svg id="Layer_1" xmlns="http://www.w3.org/2000/svg" width="250" height="250" viewBox="0 0 250 250"><path d="M60 186.983c0-8.666 8.667-17.333 17.333-17.333 8.667 0 30.334 0 30.334-8.667 0-6.384-.368-17.47-2.846-22.866l-.005-.004c-6.229-7.143-10.149-17.54-10.149-29.113 0-21.539 8.666-39 30.333-39s30.333 17.461 30.333 39c0 11.576-3.923 21.976-10.152 29.118-2.479 5.396-2.848 16.481-2.848 22.865 0 8.667 21.667 8.667 30.334 8.667 8.666 0 17.333 8.667 17.333 17.333" fill="none" stroke="#000" stroke-width="8" stroke-linecap="round" stroke-linejoin="round" stroke-miterlimit="10"/></svg>