<svg id="Layer_1" xmlns="http://www.w3.org/2000/svg" width="250" height="250" viewBox="0 0 250 250"><path d="M190 164l-26 26L60 86l26-26 104 104zM86 86l6.5-6.499L99 73l-6.5 6.501L86 86zm19.5 6.5l3.25-3.25L112 86l-3.25 3.25-3.25 3.25zM112 112l6.5-6.5L125 99l-6.5 6.5-6.5 6.5zm19.5 6.5l3.25-3.25L138 112l-3.25 3.25-3.25 3.25zM138 138l6.5-6.5 6.5-6.5-6.5 6.5-6.5 6.5zm19.5 6.5l3.25-3.25L164 138l-3.25 3.25-3.25 3.25zm12.999 13L177 151l-6.501 6.5L164 164l6.499-6.5z" fill="none" stroke="#000" stroke-width="8" stroke-linecap="round" stroke-linejoin="round" stroke-miterlimit="10"/></svg>