<svg id="Layer_1" xmlns="http://www.w3.org/2000/svg" width="250" height="250" viewBox="0 0 250 250"><path d="M100 130c0-16.357 7.856-30.879 20-40.001A49.779 49.779 0 0 0 90 80c-27.614 0-50 22.386-50 50s22.386 50 50 50a49.779 49.779 0 0 0 30-9.999c-12.144-9.122-20-23.644-20-40.001z" fill="none" stroke="#000" stroke-width="8" stroke-linecap="round" stroke-linejoin="round" stroke-miterlimit="10"/><circle cx="150" cy="130" r="50" fill="none" stroke="#000" stroke-width="8" stroke-linecap="round" stroke-linejoin="round" stroke-miterlimit="10"/><path d="M164.461 112.923c0-4.308 0-12.923-12.923-12.923-17.23 0-12.923 55.998-17.23 55.998h30.153c8.614 0 8.614-8.615 8.614-8.615" fill="none" stroke="#000" stroke-width="8" stroke-linecap="round" stroke-linejoin="round" stroke-miterlimit="10"/><path d="M130 123.932s4.308-4.308 8.615 0 8.615 0 8.615 0M130 132.067s4.308-4.307 8.615 0c4.308 4.308 8.615 0 8.615 0" fill="none" stroke="#000" stroke-width="8" stroke-linecap="round" stroke-linejoin="round" stroke-miterlimit="10"/></svg>