<svg id="Layer_1" xmlns="http://www.w3.org/2000/svg" xmlns:xlink="http://www.w3.org/1999/xlink" width="250" height="250" viewBox="0 0 250 250"><symbol id="clock" viewBox="-51.832 -59.331 103.664 118.662"><path d="M47.832-7.499c0 26.417-21.415 47.832-47.832 47.832S-47.832 18.918-47.832-7.499c0-26.418 21.415-47.832 47.832-47.832S47.832-33.917 47.832-7.499z" fill="none" stroke="#000" stroke-width="8" stroke-linecap="round" stroke-linejoin="round" stroke-miterlimit="10"/><path fill="none" stroke="#000" stroke-width="8" stroke-linecap="round" stroke-linejoin="round" stroke-miterlimit="10" d="M-6.38-1.12l31.888 19.132L6.376-13.876zM34.954 53.043c12.745-7.358 5.386-20.104 5.386-20.104L14.85 47.657s7.359 12.745 20.104 5.386zM-34.954 53.043c12.745 7.359 20.104-5.386 20.104-5.386l-25.492-14.719s-7.357 12.747 5.388 20.105zM0 40.333v14.718M0 55.051h-7.358M0 55.051h7.358M33.114-47.973l7.361-7.358M-33.114-47.973l-7.36-7.358"/></symbol><symbol id="cloud-dark" viewBox="-74 -49 148 98"><path d="M-50-45H50s20 0 20 30-20 30-20 30H30s0 30-30 30-30-30-30-30h-20c-20 0-20-30-20-30 0-30 20-30 20-30zM65-15L35-45M55 15L-5-45M25 25l-70-70M5 45l-70-70" fill="none" stroke="#000" stroke-width="8" stroke-linecap="round" stroke-linejoin="round" stroke-miterlimit="10"/></symbol><symbol id="cloud-light" viewBox="-74 -49 148 98"><path d="M-50-45H50s20 0 20 30-20 30-20 30H30s0 30-30 30-30-30-30-30h-20c-20 0-20-30-20-30 0-30 20-30 20-30z" fill="none" stroke="#000" stroke-width="8" stroke-linecap="round" stroke-linejoin="round" stroke-miterlimit="10"/></symbol><symbol id="coins" viewBox="-84 -54 168 108"><path d="M-20 0c0 16.357 7.856 30.879 20 40.001A49.779 49.779 0 0 1-30 50c-27.614 0-50-22.386-50-50s22.386-50 50-50a49.779 49.779 0 0 1 30 9.999C-12.144-30.879-20-16.357-20 0z" fill="none" stroke="#000" stroke-width="8" stroke-linecap="round" stroke-linejoin="round" stroke-miterlimit="10"/><path d="M80 0c0 27.614-22.386 50-50 50S-20 27.614-20 0 2.386-50 30-50 80-27.614 80 0z" fill="none" stroke="#000" stroke-width="8" stroke-linecap="round" stroke-linejoin="round" stroke-miterlimit="10"/><path d="M44.461 17.077c0 4.308 0 12.923-12.923 12.923-17.23 0-12.923-55.998-17.23-55.998h30.153c8.614 0 8.614 8.615 8.614 8.615" fill="none" stroke="#000" stroke-width="8" stroke-linecap="round" stroke-linejoin="round" stroke-miterlimit="10"/><path d="M10 6.068s4.308 4.308 8.615 0 8.615 0 8.615 0M10-2.067s4.308 4.307 8.615 0c4.308-4.308 8.615 0 8.615 0" fill="none" stroke="#000" stroke-width="8" stroke-linecap="round" stroke-linejoin="round" stroke-miterlimit="10"/></symbol><symbol id="compass" viewBox="-69 -69 138 138"><path d="M65 0c0 35.898-29.102 65-65 65S-65 35.898-65 0c0-35.899 29.102-65 65-65S65-35.899 65 0z" fill="none" stroke="#000" stroke-width="8" stroke-linecap="round" stroke-linejoin="round" stroke-miterlimit="10"/><path fill="none" stroke="#000" stroke-width="8" stroke-linecap="round" stroke-linejoin="round" stroke-miterlimit="10" d="M34.663 34.667L8.664-8.667l-43.334-26 26 43.334z"/><path d="M.434 0C.434-.24.24-.433 0-.433a.433.433 0 1 0 0 .866A.433.433 0 0 0 .434 0zM0 52V41.6M0-41.6V-52M-52 0h10.4M41.6 0H52" fill="none" stroke="#000" stroke-width="8" stroke-linecap="round" stroke-linejoin="round" stroke-miterlimit="10"/></symbol><symbol id="dram" viewBox="-49 -69 98 138"><path d="M-25 65V45c0-20-20-40-20-60s20-30 20-30-10-20 0-20h50c10 0 0 20 0 20s20 10 20 30-20 40-20 60v20M45-15h-90" fill="none" stroke="#000" stroke-width="8" stroke-linecap="round" stroke-linejoin="round" stroke-miterlimit="10"/></symbol><symbol id="drop" viewBox="-43.474 -66.5 86.947 133"><path d="M-39.474-23.027C-39.474-1.227-6.579 62.5 0 62.5S39.474-1.227 39.474-23.027 21.801-62.5 0-62.5s-39.474 17.672-39.474 39.473z" fill="none" stroke="#000" stroke-width="8" stroke-linecap="round" stroke-linejoin="round" stroke-miterlimit="10"/></symbol><symbol id="exclamation" viewBox="-21.334 -69 42.668 138"><path fill="none" stroke="#000" stroke-width="8" stroke-linecap="round" stroke-linejoin="round" stroke-miterlimit="10" d="M0-30.334l-17.334 86.667L-8.666 65H8.666l8.668-8.667zM0-47.666L-8.666-65H8.666z"/></symbol><symbol id="flag" viewBox="-44 -70.111 88 140.222"><path fill="none" stroke="#000" stroke-width="8" stroke-linecap="round" stroke-linejoin="round" stroke-miterlimit="10" d="M-40-66.111v130M-30 63V7s28 7 35 0 35 0 35 0v56s-21-7-35 0-35 0-35 0z"/></symbol><symbol id="hill" viewBox="-109 -43.375 218 86.75"><path fill="none" stroke="#000" stroke-width="8" stroke-linecap="round" stroke-linejoin="round" stroke-miterlimit="10" d="M-105-39.375l78.75 78.75L17.5-4.374M-17.5-39.375l61.25 61.25L105-39.375"/></symbol><symbol id="ice" viewBox="-51.735 -59.12 103.471 118.24"><path fill="none" stroke="#000" stroke-width="8" stroke-linecap="round" stroke-linejoin="round" stroke-miterlimit="10" d="M0-29.15l-25.245 14.575v29.15L0 29.15l25.245-14.575v-29.15zM0 15v40M-17.527 45L0 55.12 17.527 45M0-15v-40M-17.527-45L0-55.12 17.527-45M-12.99 7.38l-34.642 20M-47.734 7.201l-.001 20.238 17.528 10.12M12.99-7.62l34.642-20M30.207-37.799L47.735-27.68l-.001 20.239M-12.99-7.5l-34.642-20M-30.208-37.679l-17.527 10.118.001 20.241M12.99 7.5l34.642 20M47.734 7.32l.001 20.241-17.527 10.118"/></symbol><symbol id="leaf" viewBox="-90.416 -42.404 180.832 84.809"><path d="M-54.41-.003c0-38.401 25.605-38.401 51.209-38.401 38.406 0 64.012 38.401 89.616 38.401" fill="none" stroke="#000" stroke-width="8" stroke-linecap="round" stroke-linejoin="round" stroke-miterlimit="10"/><path d="M86.416-.003c-25.604 0-51.21 38.407-89.616 38.407-25.604 0-51.209 0-51.209-38.407h-19.204s-12.802 0-12.802 12.803M-54.41-.003h76.814" fill="none" stroke="#000" stroke-width="8" stroke-linecap="round" stroke-linejoin="round" stroke-miterlimit="10"/><path d="M9.602-12.805L-3.2-.003 9.602 12.8M-16.002 12.8L-28.805-.003l12.803-12.802" fill="none" stroke="#000" stroke-width="8" stroke-linecap="round" stroke-linejoin="round" stroke-miterlimit="10"/></symbol><symbol id="mail" viewBox="-69 -43 138 86"><path fill="none" stroke="#000" stroke-width="8" stroke-linecap="round" stroke-linejoin="round" stroke-miterlimit="10" d="M-65 39H65v-78H-65z"/><path fill="none" stroke="#000" stroke-width="8" stroke-linecap="round" stroke-linejoin="round" stroke-miterlimit="10" d="M-56.333 39l52-52h8.666l52 52"/></symbol><symbol id="mist" viewBox="-79 -56.941 158 113.883"><path fill="none" stroke="#000" stroke-width="8" stroke-linecap="round" stroke-linejoin="round" stroke-miterlimit="10" d="M-75 52.941H57.353M-48.529 26.471H75M-75 0H48.529M-48.529-26.471H75M-75-52.941H48.529"/></symbol><symbol id="photo" viewBox="-69 -69 138 138"><path fill="none" stroke="#000" stroke-width="8" stroke-linecap="round" stroke-linejoin="round" stroke-miterlimit="10" d="M65-65H-65V65H65z"/><path fill="none" stroke="#000" stroke-width="8" stroke-linecap="round" stroke-linejoin="round" stroke-miterlimit="10" d="M51.316-37.632H-51.316v88.948H51.316z"/><path fill="none" stroke="#000" stroke-width="8" stroke-linecap="round" stroke-linejoin="round" stroke-miterlimit="10" d="M-37.632 2.566l28.224 28.223L6.272 15.11M-6.272 2.566l21.953 21.952L37.632 2.566"/></symbol><symbol id="profile" viewBox="-69 -62.491 138 124.983"><path d="M-65-58.491c0 8.666 8.667 17.333 17.333 17.333 8.667 0 30.334 0 30.334 8.667 0 6.384-.368 17.47-2.846 22.866l-.005.004c-6.229 7.143-10.149 17.54-10.149 29.113 0 21.539 8.666 39 30.333 39s30.333-17.461 30.333-39c0-11.576-3.923-21.976-10.152-29.118-2.479-5.396-2.848-16.481-2.848-22.865 0-8.667 21.667-8.667 30.334-8.667C56.333-41.158 65-49.825 65-58.491" fill="none" stroke="#000" stroke-width="8" stroke-linecap="round" stroke-linejoin="round" stroke-miterlimit="10"/></symbol><symbol id="pulse" viewBox="-109 -64 218 128"><path fill="none" stroke="#000" stroke-width="8" stroke-linecap="round" stroke-linejoin="round" stroke-miterlimit="10" d="M105 0H55L45-20 35 20 15-60-15 60l-20-80-10 40-10-20h-50"/></symbol><symbol id="question" viewBox="-59 -59 118 118"><path d="M.561 35.903c6.417 0 11.555-1.809 15.416-5.429 3.858-3.618 5.789-8.243 5.789-13.873 0-3.411-.701-6.179-2.1-8.301-1.402-2.124-4.27-5.245-8.604-9.363-3.153-2.99-5.208-5.525-6.158-7.599-.952-2.076-1.43-5.142-1.43-9.194h-8.588c0 4.601.544 8.307 1.639 11.123C-2.382-3.919.053-.693 3.827 2.946l3.938 3.81c1.182 1.094 2.143 2.235 2.876 3.426 1.337 2.091 2.005 4.264 2.005 6.515 0 3.153-.962 5.889-2.883 8.205-1.922 2.316-5.101 3.475-9.535 3.475-5.484 0-9.277-1.995-11.382-5.984-1.18-2.22-1.856-5.422-2.02-9.603h-8.59c0 6.95 1.987 12.538 5.96 16.771 3.974 4.226 9.428 6.342 16.365 6.342m3.734-61.769v-10.037h-9.603v10.037h9.603M.561 42.673c-8.845 0-16.01-2.853-21.298-8.478-5.175-5.514-7.796-12.714-7.796-21.406a6.77 6.77 0 0 1 6.769-6.77h8.59a6.77 6.77 0 0 1 6.765 6.505c.16 4.105.841 5.954 1.232 6.69.447.848 1.262 2.392 5.404 2.392 2.561 0 3.914-.531 4.327-1.029.913-1.101 1.321-2.299 1.321-3.881 0-.956-.298-1.867-.938-2.869l-.059-.093c-.406-.658-.981-1.335-1.713-2.012a5.06 5.06 0 0 1-.108-.102L-.881 7.809C-5.404 3.449-8.32-.509-9.785-4.281c-1.411-3.632-2.098-8.072-2.098-13.574 0-1.441.45-2.777 1.217-3.874a6.736 6.736 0 0 1-1.41-4.137v-10.037a6.77 6.77 0 0 1 6.769-6.77h9.603a6.77 6.77 0 0 1 6.769 6.77v10.037A6.745 6.745 0 0 1 9.3-21.307c.6 1.011.944 2.19.944 3.452 0 4.151.568 5.838.812 6.37.266.581 1.249 2.271 4.664 5.512 4.821 4.58 7.869 7.931 9.596 10.544 2.138 3.246 3.219 7.292 3.219 12.031 0 7.55-2.667 13.878-7.929 18.812C15.468 40.23 8.724 42.673.561 42.673z"/><path d="M55 0c0 30.376-24.624 55-55 55S-55 30.376-55 0s24.624-55 55-55S55-30.376 55 0z" fill="none" stroke="#000" stroke-width="8" stroke-linecap="round" stroke-linejoin="round"/></symbol><symbol id="rain" viewBox="-55.711 -69.603 111.422 139.206"><path d="M-51.711-41.461c0 13.332 20.119 52.309 24.144 52.309S-3.426-28.129-3.426-41.461c0-13.335-10.81-24.142-24.142-24.142-13.334 0-24.143 10.807-24.143 24.142zM3.426 13.293c0 13.334 20.117 52.31 24.142 52.31s24.144-38.976 24.144-52.31-10.81-24.141-24.145-24.141c-13.332 0-24.141 10.807-24.141 24.141z" fill="none" stroke="#000" stroke-width="8" stroke-linecap="round" stroke-linejoin="round" stroke-miterlimit="10"/></symbol><symbol id="ruler" viewBox="-69 -69 138 138"><path fill="none" stroke="#000" stroke-width="8" stroke-linecap="round" stroke-linejoin="round" stroke-miterlimit="10" d="M65-39L39-65-65 39l26 26z"/><path d="M-39 39l6.5 6.499L-26 52l-6.5-6.501L-39 39zM-19.5 32.5l3.25 3.25L-13 39l-3.25-3.25-3.25-3.25zM-13 13l6.5 6.5L0 26l-6.5-6.5L-13 13zM6.5 6.5l3.25 3.25L13 13 9.75 9.75 6.5 6.5zM13-13l6.5 6.5L26 0l-6.5-6.5L13-13zM32.5-19.5l3.25 3.25L39-13l-3.25-3.25-3.25-3.25zM39-39l6.499 6.5L52-26l-6.501-6.5L39-39z" fill="none" stroke="#000" stroke-width="8" stroke-linecap="round" stroke-linejoin="round" stroke-miterlimit="10"/></symbol><symbol id="star" viewBox="-71.553 -68.247 143.105 136.494"><path fill="none" stroke="#000" stroke-width="8" stroke-linecap="round" stroke-linejoin="round" stroke-miterlimit="10" d="M0-42.297l-41.75-21.95 7.975 46.49-33.778 32.923 46.679 6.784L0 64.247 20.875 21.95l46.678-6.784-33.776-32.923 7.974-46.49z"/></symbol><symbol id="sun" viewBox="-69 -69 138 138"><path d="M42.059 0c0 23.229-18.83 42.059-42.059 42.059S-42.059 23.229-42.059 0-23.23-42.059 0-42.059c23.229 0 42.059 18.83 42.059 42.059z" fill="none" stroke="#000" stroke-width="8" stroke-linecap="round" stroke-linejoin="round" stroke-miterlimit="10"/><g fill="none" stroke="#000" stroke-width="8" stroke-linecap="round" stroke-linejoin="round" stroke-miterlimit="10"><path d="M0 65V52M0-52v-13M-65 0h13M52 0h13"/></g><g fill="none" stroke="#000" stroke-width="8" stroke-linecap="round" stroke-linejoin="round" stroke-miterlimit="10"><path d="M-45.962 45.962l9.192-9.193M36.769-36.77l9.193-9.192M-45.962-45.962l9.192 9.192M36.769 36.769l9.193 9.193"/></g></symbol><symbol id="target" viewBox="-69 -69 138 138"><path d="M65 0c0-35.897-29.103-65-65-65-35.898 0-65 29.103-65 65s29.102 65 65 65c35.897 0 65-29.103 65-65z" fill="none" stroke="#000" stroke-width="8" stroke-linecap="round" stroke-linejoin="round" stroke-dasharray="102.0907,102.0907"/><path d="M35 0H15h20zM-15 0h-20 20zM0 35V25 15v20zM0-15v-10-10 20z" fill="none" stroke="#000" stroke-width="8" stroke-linecap="round" stroke-linejoin="round" stroke-miterlimit="10" stroke-dasharray="100"/></symbol><symbol id="wind" viewBox="-64 -74 128 148"><path d="M-60-30h80c20 0 20-20 20-20s0-20-20-20S0-50 0-50M-60 10h80c20 0 20 20 20 20M-60-10H40c20 0 20-20 20-20M-60 30H0c20 0 20 20 20 20s0 20-20 20-20-20-20-20" fill="none" stroke="#000" stroke-width="8" stroke-linecap="round" stroke-linejoin="round" stroke-miterlimit="10"/></symbol><use xlink:href="#hill" width="218" height="86.75" x="-109" y="-43.375" transform="matrix(1 0 0 -1 125 125)" overflow="visible"/><use xlink:href="#pulse" width="218" height="128" x="-109" y="-64" transform="matrix(1 0 0 -1 665 130)" overflow="visible"/><use xlink:href="#flag" width="88" height="140.222" x="-44" y="-70.111" transform="matrix(1 0 0 -1 400 123.889)" overflow="visible"/><use xlink:href="#exclamation" width="42.668" height="138" x="-21.334" y="-69" transform="matrix(1 0 0 -1 935 125)" overflow="visible"/><use xlink:href="#star" width="143.105" height="136.494" x="-71.553" y="-68.247" transform="matrix(1 0 0 -1 935 390)" overflow="visible"/><use xlink:href="#leaf" width="180.832" height="84.809" x="-90.416" y="-42.404" transform="matrix(1 0 0 -1 125.001 393.17)" overflow="visible"/><use xlink:href="#drop" width="86.947" height="133" x="-43.474" y="-66.5" transform="matrix(1 0 0 -1 395 392.5)" overflow="visible"/><use xlink:href="#target" width="138" height="138" x="-69" y="-69" transform="matrix(1 0 0 -1 125 665)" overflow="visible"/><use xlink:href="#photo" width="138" height="138" x="-69" y="-69" transform="matrix(1 0 0 -1 395 665)" overflow="visible"/><use xlink:href="#profile" width="138" height="124.983" x="-69" y="-62.491" transform="matrix(1 0 0 -1 665 668.492)" overflow="visible"/><use xlink:href="#ruler" width="138" height="138" x="-69" y="-69" transform="matrix(1 0 0 -1 935 665)" overflow="visible"/><use xlink:href="#compass" width="138" height="138" x="-69" y="-69" transform="matrix(1 0 0 -1 1205 125)" overflow="visible"/><use xlink:href="#coins" width="168" height="108" x="-84" y="-54" transform="matrix(1 0 0 -1 660 400)" overflow="visible"/><use xlink:href="#dram" width="98" height="138" x="-49" y="-69" transform="matrix(1 0 0 -1 1205 395)" overflow="visible"/><use xlink:href="#wind" width="128" height="148" x="-64" y="-74" transform="matrix(1 0 0 -1 1205 665)" overflow="visible"/><use xlink:href="#cloud-light" width="148" height="98" x="-74" y="-49" transform="matrix(1 0 0 -1 1475 125)" overflow="visible"/><use xlink:href="#cloud-dark" width="148" height="98" x="-74" y="-49" transform="matrix(1 0 0 -1 1475 395)" overflow="visible"/><use xlink:href="#sun" width="138" height="138" x="-69" y="-69" transform="matrix(1 0 0 -1 1475 665)" overflow="visible"/><use xlink:href="#rain" width="111.422" height="139.206" x="-55.711" y="-69.603" transform="matrix(1 0 0 -1 1745 125)" overflow="visible"/><use xlink:href="#mist" width="158" height="113.883" x="-79" y="-56.941" transform="matrix(1 0 0 -1 1745 395)" overflow="visible"/><use xlink:href="#ice" width="103.471" height="118.24" x="-51.735" y="-59.12" transform="matrix(1 0 0 -1 1747.735 665)" overflow="visible"/><use xlink:href="#mail" width="138" height="86" x="-69" y="-43" transform="matrix(1 0 0 -1 2015 125)" overflow="visible"/><use xlink:href="#clock" width="103.664" height="118.662" x="-51.832" y="-59.331" transform="matrix(1 0 0 -1 2015 395)" overflow="visible"/><use xlink:href="#question" width="118" height="118" x="-59" y="-59" transform="matrix(1 0 0 -1 2015 665)" overflow="visible"/></svg>